<svg version="1" xmlns="http://www.w3.org/2000/svg" width="544" height="544" viewBox="0 0 408.000000 408.000000"><path d="M185.7.5c-.1.1-4.7.5-10.2.9-11.1.7-18.2 1.4-23.5 2.3-1.9.3-4.8.7-6.5.8-1.6.2-4.3.6-6 .9-1.6.3-4.7.8-6.9 1.1-2.1.4-4.8.9-6 1.1-1.1.3-4.6 1-7.6 1.5-7.1 1.4-6.8 1.4-11.5 2.7-2.2.6-5.1 1.3-6.5 1.6-1.4.3-4.3 1-6.5 1.6-2.2.6-4.9 1.3-6 1.6-1.1.3-2.7.7-3.5.9-.8.2-1.6.4-1.7.5-.2.2-.7.4-1.3.5-.5.1-1.1.3-1.2.5-.2.1-1 .3-1.8.5-.8.1-3.7 1-6.5 2-2.7.9-5.7 1.8-6.5 2-1.5.3-4.4 1.4-9.7 3.7-1.6.6-3.7 1.3-4.8 1.5-1.1.2-2.4.8-2.9 1.3-.6.6-1.6 1-2.3 1-.7 0-3.6 1.1-6.5 2.4-2.9 1.3-7.4 3.3-10.1 4.4-2.6 1.2-4.7 2.5-4.7 3 0 2.3 8.8 22.2 9.9 22.2.3 0 7.1-2.9 15.1-6.4 18.1-7.9 19.7-8.6 22.8-8.8.6-.1 1.2-.5 1.2-1 0-.4.9-.8 2-.8s2-.5 2-1.2c0-.6.3-.9.6-.5.3.3 2.3-.1 4.5-.8 2.1-.8 3.9-1.2 3.9-.8 0 .3.6.1 1.3-.5.6-.5 2.8-1.3 4.7-1.8 4.9-1.1 4.9-1.1 5.5-1.4.3-.1.8-.3 1.3-.4.4-.1 1.6-.5 2.7-.9 1.1-.3 3.1-.9 4.5-1.1 1.4-.3 5.2-1.2 8.5-2 7.5-1.9 13.2-3 19.5-4 1.9-.3 4.6-.8 6-1 5.2-1 10.7-1.7 15.5-2.2 2.8-.2 6.6-.7 8.5-1 8.2-1.2 51.9-1.9 65.5-.9 16.3 1.1 28.4 2.5 42 5 17.4 3.1 19.8 3.6 21 4.3.6.4 1.9.7 3 .8 2.4.3 4.6.8 10.5 2.5 2.5.7 4.8 1.3 5.3 1.5.4.1.9.3 1.2.4.3.1.8.3 1.3.4 5.7 1.5 10.1 2.9 11.7 3.6 1.1.5 3.8 1.4 6 2.1 2.2.6 4.6 1.7 5.4 2.3.8.6 1.5 1 1.5.8.2-.8 16.6 5.9 28.4 11.6 3.4 1.6 5.7 2.1 6.3 1.5.5-.5 2.9-5.6 5.4-11.3 4-9.5 4.2-10.5 2.7-11.5-2.6-1.8-25.6-11-25.8-10.3 0 .2-.7-.2-1.5-.8-1.4-1.2-20.4-7.6-22.6-7.7-.7 0-1.3-.4-1.3-.9 0-.4-1.3-.8-3-.8-1.6 0-3-.4-3-.8s-1.1-.9-2.6-1c-1.4-.1-3.4-.6-4.4-1.2-1-.5-2.9-1-4.2-1-1.3 0-2.9-.5-3.6-1.2-.7-.7-1.2-.9-1.2-.6 0 .3-1.7.2-3.7-.4-11.8-2.9-19.3-4.4-35.8-7.2-8.4-1.5-11.9-1.9-23.7-3.1-2.7-.3-7.2-.8-10-1.1-4.7-.6-49.5-1.3-50.1-.9z"/><path d="M164.7 39.6c-.3.3-3.6.7-7.3.9-6.7.5-8.9.7-17.7 2.1-4.8.7-7.2 1.2-7.2 1.4 0 .1-1.6.3-3.5.4-1.9.2-5.7.9-8.5 1.5-2.7.7-5.7 1.4-6.6 1.6-.9.2-3.4.8-5.4 1.4-2.1.6-4.2.8-4.6.6-.4-.3-.9-.1-1.1.4-.1.5-1.6 1.1-3.3 1.4-3.8.7-22.7 6.7-24 7.7-1.1.8-6.6 2.4-7.7 2.2-.3-.1-1.2.5-1.8 1.3-.7.8-2 1.5-2.9 1.5-.9.1-6.4 2.4-12.4 5.3L40 74.5l3.6 5.4c5 7.4 20.9 23.1 23.4 23.1.5 0 1 .4 1 1 0 .5.7 1 1.5 1s1.5.4 1.5.8c0 .5 1.7 1.7 3.8 2.8 2 1 3.9 2.2 4.2 2.6.6.7 9.3 4.8 9.6 4.5.1-.1.4-1.8.7-3.7.8-6.7 4.6-13.3 9.9-17.5 1.9-1.5 10.9-5.3 14.4-6 7.3-1.5 18.6-2.5 31.9-2.8 5.8-.1 8 .1 8.1 1 .1.7.3 1.6.4 2 .1.5.2 1.1.2 1.4-.1.4.7 5.8 1.8 12 1.9 11.9 2.7 17 3.6 22.9.3 1.9.7 4.6.9 6 .3 1.4.7 3.8.9 5.5.3 1.6 1 6.1 1.6 10 .7 3.8 1.4 8.3 1.6 10 .4 3.1.8 6 2.4 15.5 1.4 8.3 2.7 16.9 3.6 23.5.5 3.8.8 5.5 1.7 10 .3 1.1.7 4.1 1.1 6.6.4 2.5.9 5.9 1.2 7.5.3 1.6.7 4.2.9 5.9 1.1 7.6 1.6 11.2 2.2 13.5.3 1.4.7 4.3.9 6.5.6 5.1 1.2 9 1.4 9 .1 0 .4 1.3.5 3 .2 1.6.6 4.3.9 6 .2 1.6.7 4.8 1.1 7 .3 2.2.8 5.1 1 6.5 1.1 5.9 1.7 9.7 2 13 .2 1.9.5 3.5.5 3.5.1 0 .4 1.1.5 2.5.2 1.4.6 3.8.9 5.5.3 1.6.8 4.7 1.1 6.9.2 2.1.9 6.4 1.5 9.5.5 3.1 1.2 7.2 1.4 9.1.3 2 .7 4.7 1 6 .4 1.4.8 3.8 1 5.5 1.2 9.4 1.7 13.3 2.3 15.5.3 1.4.7 3.4.8 4.5.1 1.1.6 4.2 1 7 .4 2.7.9 5.9 1 7 .2 1.1.6 3.3.9 5 .4 1.6.9 5 1.2 7.5.3 2.5.7 5.2.9 6 .5 1.7 1.8 10.6 1.9 13.2.1 2.9 1.6 2 1.7-1 .2-3.1.5-5.8 1.2-8.8.3-1.1.8-4.7 1.1-7.9.4-3.2.8-6.1 1-6.4.2-.3.7-2.9 1-5.6.4-2.8.9-6.4 1.2-8 .3-1.7.7-4.6.9-6.5.2-1.9.4-3.5.5-3.5.3 0 .7-2.4 2.5-15 .5-3.7 1.4-8.9 2.1-12.5.2-.8.5-3.6.6-6.2.2-2.7.5-4.8.8-4.8.3 0 .7-1.2.8-2.8.1-1.5.4-3.7.6-4.9.5-2.4 1.5-9.3 2.1-13.8.2-1.7.4-3 .5-3 .1 0 .3-1.1.5-2.5s.6-4.1.9-6c1.2-7.9 1.9-13.6 2-15.3 0-.9.3-1.7.6-1.7s.5-1 .6-2.3c.1-2.4 1.1-9.7 1.9-13.8.3-1.4.7-4.1.9-6 .3-1.9.5-3.4.6-3.4.1 0 .3-1.4.5-3 .6-4.5 1.4-9.7 1.8-12 .3-1.1.8-4.2 1.1-6.8.4-2.7.9-5.6 1-6.5.2-1 .7-3.9 1-6.5.4-2.7 1-5.9 1.2-7 .3-1.2.7-4 .9-6.2.3-2.2.7-5.1 1-6.5.2-1.3.7-4.2 1-6.5.4-2.2 1.5-9.6 2.6-16.5s2.2-14.1 2.5-16c.3-1.9 1.1-7.3 1.9-12 .8-4.7 1.7-10.4 2-12.8.3-2.3 1.3-8.2 2.1-13 .8-4.8 1.6-9.8 1.8-11.2.1-1.4.6-5.1 1-8.3.9-6.4.1-6 12.1-5.8 11.9.2 21.9 1.2 28.3 2.6 1.2.3 3.1.7 4.1.9 1.1.3 4.5 1.7 7.6 3.2 7.2 3.6 12 10 13.1 17.9.9 5.8 1 5.9 6.6 2.8 7.1-3.9 10.2-5.7 10.8-6.3.3-.3 2.5-1.9 5-3.5 5.7-3.9 21-18.6 21-20.2 0-.7.4-1.3.8-1.3.5 0 1.8-1.7 3-3.8l2.1-3.8-4.7-2.4c-2.6-1.3-4.9-2.4-5.2-2.5-.3-.1-3-1.3-6-2.7-10.7-5-38-14.7-45.5-16.3-1.1-.2-4.5-1-7.5-1.8-6.2-1.7-16.6-3.9-24.5-5.2-1.6-.3-4.3-.7-6-1-4-.8-8.7-1.3-16.5-2-3.5-.4-6.7-.8-6.9-1.1-.2-.2-1 .1-1.8.7-1 .9-1.3.8-1.3-.2 0-.7-.8-.2-1.7 1.1-1 1.4-2.1 2.9-2.5 3.5-.5.5-3.3 4.4-6.3 8.5s-5.8 7.9-6.3 8.5c-.4.5-2.3 3.2-4.2 6-1.9 2.7-3.8 5.4-4.3 6-2.4 2.9-10.7 15.1-10.7 15.7 0 3.2-4.3-1.6-15-16.5-6.8-9.4-12.7-17.4-13.2-17.5-.4-.2-.8-1-.8-1.8s-.4-1.4-1-1.4c-.5 0-1-.7-1-1.5s-.3-1.5-.8-1.5c-.4 0-1.8-1.8-3.2-4.1-2.5-4-5.2-6.3-6.3-5.3z"/></svg>